<mxfile host="app.diagrams.net" agent="Mozilla/5.0 (Windows NT 10.0; Win64; x64) AppleWebKit/537.36 (KHTML, like Gecko) Chrome/133.0.0.0 Safari/537.36" version="26.2.13">
  <diagram name="Trang-1" id="s7d0tQ2-8X_ddWioPUzJ">
    <mxGraphModel dx="1318" dy="620" grid="1" gridSize="10" guides="1" tooltips="1" connect="1" arrows="1" fold="1" page="1" pageScale="1" pageWidth="827" pageHeight="1169" math="0" shadow="0">
      <root>
        <mxCell id="0" />
        <mxCell id="1" parent="0" />
        <mxCell id="5VcjDVcLbKFPPsPFJ59o-3" value="" style="edgeStyle=orthogonalEdgeStyle;rounded=0;orthogonalLoop=1;jettySize=auto;html=1;" edge="1" parent="1" source="5VcjDVcLbKFPPsPFJ59o-1" target="5VcjDVcLbKFPPsPFJ59o-2">
          <mxGeometry relative="1" as="geometry" />
        </mxCell>
        <mxCell id="5VcjDVcLbKFPPsPFJ59o-1" value="Bắt đầu" style="ellipse;whiteSpace=wrap;html=1;" vertex="1" parent="1">
          <mxGeometry x="354" y="20" width="120" height="80" as="geometry" />
        </mxCell>
        <mxCell id="5VcjDVcLbKFPPsPFJ59o-5" value="" style="edgeStyle=orthogonalEdgeStyle;rounded=0;orthogonalLoop=1;jettySize=auto;html=1;" edge="1" parent="1" source="5VcjDVcLbKFPPsPFJ59o-2" target="5VcjDVcLbKFPPsPFJ59o-4">
          <mxGeometry relative="1" as="geometry" />
        </mxCell>
        <mxCell id="5VcjDVcLbKFPPsPFJ59o-2" value="Hiển thị danh sách" style="rounded=1;whiteSpace=wrap;html=1;" vertex="1" parent="1">
          <mxGeometry x="354" y="140" width="120" height="60" as="geometry" />
        </mxCell>
        <mxCell id="5VcjDVcLbKFPPsPFJ59o-39" value="" style="edgeStyle=orthogonalEdgeStyle;rounded=0;orthogonalLoop=1;jettySize=auto;html=1;" edge="1" parent="1" source="5VcjDVcLbKFPPsPFJ59o-4" target="5VcjDVcLbKFPPsPFJ59o-38">
          <mxGeometry relative="1" as="geometry">
            <Array as="points">
              <mxPoint x="532" y="310" />
              <mxPoint x="532" y="340" />
            </Array>
          </mxGeometry>
        </mxCell>
        <mxCell id="5VcjDVcLbKFPPsPFJ59o-69" style="edgeStyle=orthogonalEdgeStyle;rounded=0;orthogonalLoop=1;jettySize=auto;html=1;exitX=1;exitY=0.5;exitDx=0;exitDy=0;entryX=0;entryY=0.5;entryDx=0;entryDy=0;" edge="1" parent="1" source="5VcjDVcLbKFPPsPFJ59o-4" target="5VcjDVcLbKFPPsPFJ59o-60">
          <mxGeometry relative="1" as="geometry" />
        </mxCell>
        <mxCell id="5VcjDVcLbKFPPsPFJ59o-70" style="edgeStyle=orthogonalEdgeStyle;rounded=0;orthogonalLoop=1;jettySize=auto;html=1;exitX=1;exitY=0.5;exitDx=0;exitDy=0;entryX=0;entryY=0.5;entryDx=0;entryDy=0;" edge="1" parent="1" source="5VcjDVcLbKFPPsPFJ59o-4" target="5VcjDVcLbKFPPsPFJ59o-49">
          <mxGeometry relative="1" as="geometry" />
        </mxCell>
        <mxCell id="5VcjDVcLbKFPPsPFJ59o-71" value="TRUE" style="edgeLabel;html=1;align=center;verticalAlign=middle;resizable=0;points=[];" vertex="1" connectable="0" parent="5VcjDVcLbKFPPsPFJ59o-70">
          <mxGeometry x="-0.856" y="1" relative="1" as="geometry">
            <mxPoint x="6" y="1" as="offset" />
          </mxGeometry>
        </mxCell>
        <mxCell id="5VcjDVcLbKFPPsPFJ59o-73" value="" style="edgeStyle=orthogonalEdgeStyle;rounded=0;orthogonalLoop=1;jettySize=auto;html=1;" edge="1" parent="1" source="5VcjDVcLbKFPPsPFJ59o-4" target="5VcjDVcLbKFPPsPFJ59o-74">
          <mxGeometry relative="1" as="geometry">
            <mxPoint x="414" y="500" as="targetPoint" />
          </mxGeometry>
        </mxCell>
        <mxCell id="5VcjDVcLbKFPPsPFJ59o-75" value="FALSE" style="edgeLabel;html=1;align=center;verticalAlign=middle;resizable=0;points=[];" vertex="1" connectable="0" parent="5VcjDVcLbKFPPsPFJ59o-73">
          <mxGeometry x="-0.1977" y="2" relative="1" as="geometry">
            <mxPoint as="offset" />
          </mxGeometry>
        </mxCell>
        <mxCell id="5VcjDVcLbKFPPsPFJ59o-4" value="&amp;lt;&amp;lt;Decision&amp;gt;&amp;gt;&lt;div&gt;Thao tác&lt;/div&gt;" style="rhombus;whiteSpace=wrap;html=1;rounded=1;" vertex="1" parent="1">
          <mxGeometry x="374" y="270" width="80" height="80" as="geometry" />
        </mxCell>
        <mxCell id="5VcjDVcLbKFPPsPFJ59o-41" value="" style="edgeStyle=orthogonalEdgeStyle;rounded=0;orthogonalLoop=1;jettySize=auto;html=1;" edge="1" parent="1" source="5VcjDVcLbKFPPsPFJ59o-38" target="5VcjDVcLbKFPPsPFJ59o-40">
          <mxGeometry relative="1" as="geometry" />
        </mxCell>
        <mxCell id="5VcjDVcLbKFPPsPFJ59o-38" value="Thêm sách" style="whiteSpace=wrap;html=1;rounded=1;" vertex="1" parent="1">
          <mxGeometry x="530" y="280" width="120" height="60" as="geometry" />
        </mxCell>
        <mxCell id="5VcjDVcLbKFPPsPFJ59o-43" value="" style="edgeStyle=orthogonalEdgeStyle;rounded=0;orthogonalLoop=1;jettySize=auto;html=1;" edge="1" parent="1" source="5VcjDVcLbKFPPsPFJ59o-40" target="5VcjDVcLbKFPPsPFJ59o-42">
          <mxGeometry relative="1" as="geometry" />
        </mxCell>
        <mxCell id="5VcjDVcLbKFPPsPFJ59o-40" value="Nhập thông tin sách" style="whiteSpace=wrap;html=1;rounded=1;" vertex="1" parent="1">
          <mxGeometry x="730" y="280" width="120" height="60" as="geometry" />
        </mxCell>
        <mxCell id="5VcjDVcLbKFPPsPFJ59o-45" value="" style="edgeStyle=orthogonalEdgeStyle;rounded=0;orthogonalLoop=1;jettySize=auto;html=1;" edge="1" parent="1" source="5VcjDVcLbKFPPsPFJ59o-42" target="5VcjDVcLbKFPPsPFJ59o-44">
          <mxGeometry relative="1" as="geometry" />
        </mxCell>
        <mxCell id="5VcjDVcLbKFPPsPFJ59o-58" value="YES" style="edgeLabel;html=1;align=center;verticalAlign=middle;resizable=0;points=[];" vertex="1" connectable="0" parent="5VcjDVcLbKFPPsPFJ59o-45">
          <mxGeometry x="-0.1629" y="2" relative="1" as="geometry">
            <mxPoint as="offset" />
          </mxGeometry>
        </mxCell>
        <mxCell id="5VcjDVcLbKFPPsPFJ59o-42" value="Hợp lệ" style="rhombus;whiteSpace=wrap;html=1;rounded=1;" vertex="1" parent="1">
          <mxGeometry x="950" y="270" width="80" height="80" as="geometry" />
        </mxCell>
        <mxCell id="5VcjDVcLbKFPPsPFJ59o-47" value="" style="edgeStyle=orthogonalEdgeStyle;rounded=0;orthogonalLoop=1;jettySize=auto;html=1;" edge="1" parent="1" source="5VcjDVcLbKFPPsPFJ59o-44" target="5VcjDVcLbKFPPsPFJ59o-46">
          <mxGeometry relative="1" as="geometry" />
        </mxCell>
        <mxCell id="5VcjDVcLbKFPPsPFJ59o-44" value="Thông báo thành công" style="rounded=1;whiteSpace=wrap;html=1;" vertex="1" parent="1">
          <mxGeometry x="1090" y="280" width="120" height="60" as="geometry" />
        </mxCell>
        <mxCell id="5VcjDVcLbKFPPsPFJ59o-46" value="Lưu vào CSDL" style="whiteSpace=wrap;html=1;rounded=1;" vertex="1" parent="1">
          <mxGeometry x="1290" y="280" width="120" height="60" as="geometry" />
        </mxCell>
        <mxCell id="5VcjDVcLbKFPPsPFJ59o-52" value="" style="edgeStyle=orthogonalEdgeStyle;rounded=0;orthogonalLoop=1;jettySize=auto;html=1;" edge="1" parent="1" source="5VcjDVcLbKFPPsPFJ59o-49" target="5VcjDVcLbKFPPsPFJ59o-51">
          <mxGeometry relative="1" as="geometry" />
        </mxCell>
        <mxCell id="5VcjDVcLbKFPPsPFJ59o-49" value="Sửa sách" style="whiteSpace=wrap;html=1;rounded=1;" vertex="1" parent="1">
          <mxGeometry x="530" y="400" width="120" height="60" as="geometry" />
        </mxCell>
        <mxCell id="5VcjDVcLbKFPPsPFJ59o-54" value="" style="edgeStyle=orthogonalEdgeStyle;rounded=0;orthogonalLoop=1;jettySize=auto;html=1;" edge="1" parent="1" source="5VcjDVcLbKFPPsPFJ59o-51" target="5VcjDVcLbKFPPsPFJ59o-53">
          <mxGeometry relative="1" as="geometry" />
        </mxCell>
        <mxCell id="5VcjDVcLbKFPPsPFJ59o-51" value="Chọn sách" style="rounded=1;whiteSpace=wrap;html=1;" vertex="1" parent="1">
          <mxGeometry x="730" y="400" width="120" height="60" as="geometry" />
        </mxCell>
        <mxCell id="5VcjDVcLbKFPPsPFJ59o-56" value="" style="edgeStyle=orthogonalEdgeStyle;rounded=0;orthogonalLoop=1;jettySize=auto;html=1;" edge="1" parent="1" source="5VcjDVcLbKFPPsPFJ59o-53" target="5VcjDVcLbKFPPsPFJ59o-55">
          <mxGeometry relative="1" as="geometry" />
        </mxCell>
        <mxCell id="5VcjDVcLbKFPPsPFJ59o-53" value="Sửa thông tin" style="rounded=1;whiteSpace=wrap;html=1;" vertex="1" parent="1">
          <mxGeometry x="930" y="400" width="120" height="60" as="geometry" />
        </mxCell>
        <mxCell id="5VcjDVcLbKFPPsPFJ59o-57" value="" style="edgeStyle=orthogonalEdgeStyle;rounded=0;orthogonalLoop=1;jettySize=auto;html=1;" edge="1" parent="1" source="5VcjDVcLbKFPPsPFJ59o-55" target="5VcjDVcLbKFPPsPFJ59o-44">
          <mxGeometry relative="1" as="geometry" />
        </mxCell>
        <mxCell id="5VcjDVcLbKFPPsPFJ59o-59" value="YES" style="edgeLabel;html=1;align=center;verticalAlign=middle;resizable=0;points=[];" vertex="1" connectable="0" parent="5VcjDVcLbKFPPsPFJ59o-57">
          <mxGeometry x="-0.2801" y="-1" relative="1" as="geometry">
            <mxPoint as="offset" />
          </mxGeometry>
        </mxCell>
        <mxCell id="5VcjDVcLbKFPPsPFJ59o-55" value="Hợp lệ" style="rhombus;whiteSpace=wrap;html=1;rounded=1;" vertex="1" parent="1">
          <mxGeometry x="1110" y="390" width="80" height="80" as="geometry" />
        </mxCell>
        <mxCell id="5VcjDVcLbKFPPsPFJ59o-62" value="" style="edgeStyle=orthogonalEdgeStyle;rounded=0;orthogonalLoop=1;jettySize=auto;html=1;" edge="1" parent="1" source="5VcjDVcLbKFPPsPFJ59o-60" target="5VcjDVcLbKFPPsPFJ59o-61">
          <mxGeometry relative="1" as="geometry" />
        </mxCell>
        <mxCell id="5VcjDVcLbKFPPsPFJ59o-60" value="Xóa sách" style="whiteSpace=wrap;html=1;rounded=1;" vertex="1" parent="1">
          <mxGeometry x="530" y="160" width="120" height="60" as="geometry" />
        </mxCell>
        <mxCell id="5VcjDVcLbKFPPsPFJ59o-64" value="" style="edgeStyle=orthogonalEdgeStyle;rounded=0;orthogonalLoop=1;jettySize=auto;html=1;" edge="1" parent="1" source="5VcjDVcLbKFPPsPFJ59o-61" target="5VcjDVcLbKFPPsPFJ59o-63">
          <mxGeometry relative="1" as="geometry" />
        </mxCell>
        <mxCell id="5VcjDVcLbKFPPsPFJ59o-61" value="Chọn sách" style="whiteSpace=wrap;html=1;rounded=1;" vertex="1" parent="1">
          <mxGeometry x="730" y="160" width="120" height="60" as="geometry" />
        </mxCell>
        <mxCell id="5VcjDVcLbKFPPsPFJ59o-66" value="" style="edgeStyle=orthogonalEdgeStyle;rounded=0;orthogonalLoop=1;jettySize=auto;html=1;" edge="1" parent="1" source="5VcjDVcLbKFPPsPFJ59o-63" target="5VcjDVcLbKFPPsPFJ59o-65">
          <mxGeometry relative="1" as="geometry" />
        </mxCell>
        <mxCell id="5VcjDVcLbKFPPsPFJ59o-63" value="Xác nhận" style="rhombus;whiteSpace=wrap;html=1;rounded=1;" vertex="1" parent="1">
          <mxGeometry x="950" y="150" width="80" height="80" as="geometry" />
        </mxCell>
        <mxCell id="5VcjDVcLbKFPPsPFJ59o-68" value="" style="edgeStyle=orthogonalEdgeStyle;rounded=0;orthogonalLoop=1;jettySize=auto;html=1;" edge="1" parent="1" source="5VcjDVcLbKFPPsPFJ59o-65" target="5VcjDVcLbKFPPsPFJ59o-44">
          <mxGeometry relative="1" as="geometry" />
        </mxCell>
        <mxCell id="5VcjDVcLbKFPPsPFJ59o-65" value="Xóa khỏi danh sách" style="whiteSpace=wrap;html=1;rounded=1;" vertex="1" parent="1">
          <mxGeometry x="1090" y="160" width="120" height="60" as="geometry" />
        </mxCell>
        <mxCell id="5VcjDVcLbKFPPsPFJ59o-74" value="Kết thúc" style="ellipse;whiteSpace=wrap;html=1;" vertex="1" parent="1">
          <mxGeometry x="354" y="505" width="120" height="80" as="geometry" />
        </mxCell>
      </root>
    </mxGraphModel>
  </diagram>
</mxfile>
